<svg width="355.7px" height="138.8px" xmlns="http://www.w3.org/2000/svg" viewBox="72.15 5.599999999999994 355.7 138.8" style="background: none;" preserveAspectRatio="xMidYMid"><defs><filter id="editing-hole" x="-100%" y="-100%" width="300%" height="300%"><feFlood flood-color="none" result="black"></feFlood><feMorphology operator="dilate" radius="2" in="SourceGraphic" result="erode"></feMorphology><feGaussianBlur in="erode" stdDeviation="4" result="blur"></feGaussianBlur><feOffset in="blur" dx="2" dy="2" result="offset"></feOffset><feComposite operator="atop" in="offset" in2="black" result="merge"></feComposite><feComposite operator="in" in="merge" in2="SourceGraphic" result="inner-shadow"></feComposite></filter></defs><g filter="url(#editing-hole)"><g transform="translate(123.94998693466187, 99.2550048828125)"><path d="M21.70 0.77L21.70 0.77Q15.94 0.77 11.58-1.66L11.58-1.66L11.58-1.66Q7.23-4.10 4.90-8.54L4.90-8.54L4.90-8.54Q2.56-12.99 2.56-19.01L2.56-19.01L2.56-19.01Q2.56-25.41 5.44-30.56L5.44-30.56L5.44-30.56Q8.32-35.71 13.41-38.62L13.41-38.62L13.41-38.62Q18.50-41.54 24.90-41.54L24.90-41.54L24.90-41.54Q27.26-41.54 29.73-41.18L29.73-41.18L29.73-41.18Q32.19-40.83 33.89-40.48L33.89-40.48L33.89-40.48Q35.58-40.13 36.03-40L36.03-40L36.29-39.62L36.29-39.62Q36.16-39.23 35.87-37.76L35.87-37.76L35.87-37.76Q35.58-36.29 35.23-33.92L35.23-33.92L35.23-33.92Q34.88-31.55 34.69-28.93L34.69-28.93L31.62-28.67L31.62-28.67Q31.68-28.99 31.74-29.86L31.74-29.86L31.74-29.86Q31.81-30.72 31.81-31.81L31.81-31.81L31.81-31.81Q31.81-37.76 22.40-37.76L22.40-37.76L22.40-37.76Q18.18-37.76 14.98-35.71L14.98-35.71L14.98-35.71Q11.78-33.66 10.05-29.92L10.05-29.92L10.05-29.92Q8.32-26.18 8.32-21.12L8.32-21.12L8.32-21.12Q8.32-15.55 10.14-11.33L10.14-11.33L10.14-11.33Q11.97-7.10 15.30-4.77L15.30-4.77L15.30-4.77Q18.62-2.43 22.98-2.43L22.98-2.43L22.98-2.43Q27.33-2.43 29.98-4.90L29.98-4.90L29.98-4.90Q32.64-7.36 33.86-12.54L33.86-12.54L36.93-12.80L36.93-12.80Q36.74-11.84 36.10-8.54L36.10-8.54L36.10-8.54Q35.46-5.25 35.20-2.37L35.20-2.37L34.82-1.79L34.82-1.79Q34.82-1.73 32.86-1.06L32.86-1.06L32.86-1.06Q30.91-0.38 28 0.19L28 0.19L28 0.19Q25.09 0.77 21.70 0.77L21.70 0.77ZM63.87 0.77L63.87 0.77Q58.69 0.77 58.18-4.42L58.18-4.42L57.92-4.48L57.92-4.48Q55.62-2.18 53.73-0.83L53.73-0.83L53.73-0.83Q51.84 0.51 50.88 0.51L50.88 0.51L50.88 0.51Q47.30 0.51 44.99-1.73L44.99-1.73L44.99-1.73Q42.69-3.97 42.69-7.42L42.69-7.42L42.69-7.42Q42.69-9.28 43.62-10.69L43.62-10.69L43.62-10.69Q44.54-12.10 46.08-12.54L46.08-12.54L58.24-15.87L58.30-18.69L58.30-18.69Q58.30-21.89 56.83-23.68L56.83-23.68L56.83-23.68Q55.36-25.47 52.67-25.47L52.67-25.47L52.67-25.47Q50.88-25.47 48.90-24.64L48.90-24.64L48.90-24.64Q46.91-23.81 44.99-22.27L44.99-22.27L44.67-22.46L43.90-25.22L43.90-25.22Q46.91-26.94 49.95-28.32L49.95-28.32L49.95-28.32Q52.99-29.70 54.34-29.70L54.34-29.70L54.34-29.70Q58.50-29.70 60.86-27.52L60.86-27.52L60.86-27.52Q63.23-25.34 63.23-21.44L63.23-21.44L63.23-21.44Q63.23-20.03 62.78-15.68L62.78-15.68L62.78-15.68Q62.08-8.64 62.08-6.72L62.08-6.72L62.08-6.72Q62.08-5.31 62.78-4.54L62.78-4.54L62.78-4.54Q63.49-3.78 64.70-3.78L64.70-3.78L64.70-3.78Q65.73-3.78 66.82-4.26L66.82-4.26L66.82-4.26Q67.90-4.74 68.54-5.38L68.54-5.38L69.44-4.35L69.44-4.35Q68.48-2.75 66.98-1.25L66.98-1.25L66.98-1.25Q65.47 0.26 63.87 0.77L63.87 0.77ZM51.97-3.84L51.97-3.84Q53.18-3.84 54.82-4.70L54.82-4.70L54.82-4.70Q56.45-5.57 57.79-6.91L57.79-6.91L58.11-13.44L49.41-10.82L49.41-10.82Q47.55-10.24 47.55-8.13L47.55-8.13L47.55-8.13Q47.55-6.27 48.80-5.06L48.80-5.06L48.80-5.06Q50.05-3.84 51.97-3.84L51.97-3.84ZM84.16 0.77L84.16 0.77Q81.47 0.77 78.69 0.42L78.69 0.42L78.69 0.42Q75.90 0.06 75.90 0L75.90 0L75.33-0.51L75.33-40.06L75.33-40.06Q75.33-43.52 72.96-43.52L72.96-43.52L72.96-43.52Q72.45-43.52 72.06-43.46L72.06-43.46L72.06-43.46Q71.68-43.39 71.55-43.33L71.55-43.33L71.36-43.52L71.62-45.63L71.62-45.63Q74.37-46.02 77.31-46.66L77.31-46.66L77.31-46.66Q80.26-47.30 81.09-47.49L81.09-47.49L81.47-46.66L81.47-46.66Q81.02-46.02 80.64-40.16L80.64-40.16L80.64-40.16Q80.26-34.30 80-25.22L80-25.22L80-25.22Q82.88-27.26 84.96-28.48L84.96-28.48L84.96-28.48Q87.04-29.70 87.74-29.70L87.74-29.70L87.74-29.70Q91.33-29.70 94.14-27.97L94.14-27.97L94.14-27.97Q96.96-26.24 98.53-23.14L98.53-23.14L98.53-23.14Q100.10-20.03 100.10-16L100.10-16L100.10-16Q100.10-11.39 97.95-7.55L97.95-7.55L97.95-7.55Q95.81-3.71 92.16-1.47L92.16-1.47L92.16-1.47Q88.51 0.77 84.16 0.77L84.16 0.77ZM85.95-2.75L85.95-2.75Q90.24-2.75 92.70-5.66L92.70-5.66L92.70-5.66Q95.17-8.58 95.17-13.63L95.17-13.63L95.17-13.63Q95.17-16.83 94.05-19.52L94.05-19.52L94.05-19.52Q92.93-22.21 90.98-23.78L90.98-23.78L90.98-23.78Q89.02-25.34 86.72-25.34L86.72-25.34L86.72-25.34Q85.44-25.34 83.46-24.35L83.46-24.35L83.46-24.35Q81.47-23.36 79.87-21.89L79.87-21.89L79.68-4.10L79.68-4.10Q80.83-3.52 82.62-3.14L82.62-3.14L82.62-3.14Q84.42-2.75 85.95-2.75L85.95-2.75ZM106.94-13.44L106.50-13.95L106.88-17.28L118.02-18.56L118.02-18.56Q119.94-18.75 120.93-18.91L120.93-18.91L120.93-18.91Q121.92-19.07 122.18-19.14L122.18-19.14L122.62-18.56L122.30-15.10L106.94-13.44ZM159.49 1.02L159.49 1.02Q157.89 1.02 156.06-0.61L156.06-0.61L156.06-0.61Q154.24-2.24 152.70-5.06L152.70-5.06L145.86-17.47L140.54-17.47L140.35-7.94L140.35-7.94Q140.35-5.50 140.67-4.45L140.67-4.45L140.67-4.45Q140.99-3.39 141.89-3.04L141.89-3.04L141.89-3.04Q142.78-2.69 144.96-2.69L144.96-2.69L145.09-2.43L144.51 0.26L144.51 0.26Q143.74 0.19 141.44 0.13L141.44 0.13L141.44 0.13Q139.14 0.06 136.64 0.06L136.64 0.06L136.64 0.06Q134.40 0.06 132.67 0.13L132.67 0.13L132.67 0.13Q130.94 0.19 130.37 0.26L130.37 0.26L130.94-2.62L130.94-2.62Q132.99-2.88 134.02-3.33L134.02-3.33L134.02-3.33Q135.04-3.78 135.42-4.77L135.42-4.77L135.42-4.77Q135.81-5.76 135.81-7.68L135.81-7.68L135.87-34.56L135.87-34.56Q135.87-36.61 135.39-37.31L135.39-37.31L135.39-37.31Q134.91-38.02 133.50-38.02L133.50-38.02L133.50-38.02Q132.86-38.02 132.22-37.95L132.22-37.95L132.22-37.95Q131.58-37.89 131.33-37.89L131.33-37.89L131.20-38.14L131.65-40.96L131.65-40.96Q132.42-40.90 134.53-40.83L134.53-40.83L134.53-40.83Q136.64-40.77 138.75-40.77L138.75-40.77L138.75-40.77Q140.93-40.77 143.33-40.86L143.33-40.86L143.33-40.86Q145.73-40.96 146.62-41.02L146.62-41.02L146.62-41.02Q152.58-41.02 156.03-38.34L156.03-38.34L156.03-38.34Q159.49-35.65 159.49-30.98L159.49-30.98L159.49-30.98Q159.49-27.14 157.02-23.94L157.02-23.94L157.02-23.94Q154.56-20.74 150.08-18.69L150.08-18.69L157.12-7.55L157.12-7.55Q158.98-4.48 160.74-3.30L160.74-3.30L160.74-3.30Q162.50-2.11 165.06-2.11L165.06-2.11L165.31-1.86L164.93 0.32L159.49 1.02ZM147.26-20.42L147.26-20.42Q147.26-20.22 149.18-21.25L149.18-21.25L149.18-21.25Q151.10-22.27 152.64-24.38L152.64-24.38L152.64-24.38Q154.18-26.50 154.18-29.82L154.18-29.82L154.18-29.82Q154.18-38.27 142.46-38.27L142.46-38.27L142.46-38.27Q141.82-38.27 141.60-37.98L141.60-37.98L141.60-37.98Q141.38-37.70 141.31-36.80L141.31-36.80L141.31-36.80Q140.74-27.01 140.67-21.06L140.67-21.06L147.26-20.42ZM181.57 0.77L181.57 0.77Q177.60 0.77 174.53-0.99L174.53-0.99L174.53-0.99Q171.46-2.75 169.79-5.98L169.79-5.98L169.79-5.98Q168.13-9.22 168.13-13.38L168.13-13.38L168.13-13.38Q168.13-17.66 170.08-21.44L170.08-21.44L170.08-21.44Q172.03-25.22 175.30-27.46L175.30-27.46L175.30-27.46Q178.56-29.70 182.27-29.70L182.27-29.70L182.27-29.70Q186.94-29.70 189.38-27.33L189.38-27.33L189.38-27.33Q191.81-24.96 191.81-20.42L191.81-20.42L191.81-20.42Q191.81-18.56 191.42-17.28L191.42-17.28L190.59-16.51L172.93-16.51L172.93-16.51Q172.86-10.30 175.39-6.94L175.39-6.94L175.39-6.94Q177.92-3.58 182.46-3.58L182.46-3.58L182.46-3.58Q186.05-3.58 190.27-5.57L190.27-5.57L190.66-5.44L191.36-3.58L191.36-3.58Q189.06-1.92 186.27-0.58L186.27-0.58L186.27-0.58Q183.49 0.77 181.57 0.77L181.57 0.77ZM173.18-18.88L184.77-19.46L184.77-19.46Q185.73-19.58 186.05-19.90L186.05-19.90L186.05-19.90Q186.37-20.22 186.37-21.18L186.37-21.18L186.37-21.18Q186.37-23.74 184.99-25.09L184.99-25.09L184.99-25.09Q183.62-26.43 181.06-26.43L181.06-26.43L181.06-26.43Q178.05-26.43 175.90-24.38L175.90-24.38L175.90-24.38Q173.76-22.34 173.18-18.88L173.18-18.88ZM215.42-1.86L215.42-1.86Q217.34-2.37 218.18-3.36L218.18-3.36L218.18-3.36Q219.01-4.35 219.01-6.02L219.01-6.02L219.26-18.69L219.26-18.69Q219.26-21.89 217.89-23.62L217.89-23.62L217.89-23.62Q216.51-25.34 213.95-25.34L213.95-25.34L213.95-25.34Q211.90-25.34 209.79-24.29L209.79-24.29L209.79-24.29Q207.68-23.23 206.08-22.02L206.08-22.02L206.08-22.02Q205.50-8.77 205.50-6.27L205.50-6.27L205.50-6.27Q205.50-4.29 206.02-3.49L206.02-3.49L206.02-3.49Q206.53-2.69 207.81-2.69L207.81-2.69L207.81-2.69Q208.51-2.69 209.15-2.75L209.15-2.75L209.15-2.75Q209.79-2.82 210.05-2.82L210.05-2.82L210.18-2.56L209.60 0.19L209.60 0.19Q209.02 0.13 207.36 0.06L207.36 0.06L207.36 0.06Q205.70 0 203.78 0L203.78 0L203.78 0Q202.11 0 200.10 0.16L200.10 0.16L200.10 0.16Q198.08 0.32 197.44 0.38L197.44 0.38L197.76-2.24L197.76-2.24Q199.62-2.56 200.38-3.39L200.38-3.39L200.38-3.39Q201.15-4.22 201.15-6.02L201.15-6.02L201.15-21.63L201.15-21.63Q201.15-23.81 200.45-24.67L200.45-24.67L200.45-24.67Q199.74-25.54 198.02-25.54L198.02-25.54L197.31-25.54L197.12-25.79L197.31-27.90L197.31-27.90Q200.06-28.35 202.78-28.96L202.78-28.96L202.78-28.96Q205.50-29.57 206.27-29.76L206.27-29.76L206.66-29.25L206.66-29.25Q206.53-28.86 206.27-27.62L206.27-27.62L206.27-27.62Q206.02-26.37 205.95-25.02L205.95-25.02L206.08-24.83L206.08-24.83Q213.38-29.70 215.49-29.70L215.49-29.70L215.49-29.70Q219.52-29.70 221.89-27.46L221.89-27.46L221.89-27.46Q224.26-25.22 224.26-21.44L224.26-21.44L224.26-21.44Q224.26-20.80 223.87-15.55L223.87-15.55L223.87-15.55Q223.36-8.90 223.36-6.27L223.36-6.27L223.36-6.27Q223.36-4.42 223.87-3.55L223.87-3.55L223.87-3.55Q224.38-2.69 225.60-2.69L225.60-2.69L225.60-2.69Q226.30-2.69 226.94-2.75L226.94-2.75L226.94-2.75Q227.58-2.82 227.84-2.82L227.84-2.82L227.97-2.56L227.46 0.19L227.46 0.19Q226.88 0.13 225.28 0.06L225.28 0.06L225.28 0.06Q223.68 0 221.76 0L221.76 0L221.76 0Q220.10 0 217.95 0.32L217.95 0.32L217.95 0.32Q215.81 0.64 215.17 0.77L215.17 0.77L215.42-1.86ZM242.75 0.77L242.75 0.77Q238.40 0.77 236.61-0.99L236.61-0.99L236.61-0.99Q234.82-2.75 234.82-6.98L234.82-6.98L234.82-22.72L234.82-22.72Q234.82-24.45 234.05-25.15L234.05-25.15L234.05-25.15Q233.28-25.86 231.17-25.92L231.17-25.92L230.91-26.30L231.23-28.22L231.23-28.22Q233.09-29.12 234.85-30.43L234.85-30.43L234.85-30.43Q236.61-31.74 237.73-32.74L237.73-32.74L237.73-32.74Q238.85-33.73 239.17-34.05L239.17-34.05L240.45-33.54L240.45-33.54Q240.38-33.22 240.26-32L240.26-32L240.26-32Q240.13-30.78 239.94-28.74L239.94-28.74L249.34-28.93L249.54-28.74L248.96-25.34L239.68-25.54L239.68-25.54Q239.23-18.50 239.23-9.54L239.23-9.54L239.23-9.54Q239.23-6.27 240.35-4.93L240.35-4.93L240.35-4.93Q241.47-3.58 244.22-3.58L244.22-3.58L244.22-3.58Q245.18-3.58 246.14-3.84L246.14-3.84L246.14-3.84Q247.10-4.10 247.74-4.38L247.74-4.38L247.74-4.38Q248.38-4.67 248.58-4.74L248.58-4.74L249.22-3.07L249.22-3.07Q248.83-2.75 247.58-1.86L247.58-1.86L247.58-1.86Q246.34-0.96 244.90-0.10L244.90-0.10L244.90-0.10Q243.46 0.77 242.75 0.77L242.75 0.77Z" fill="#000000"></path></g></g><style>text {
  font-size: 64px;
  font-family: Arial Black;
  dominant-baseline: central;
  text-anchor: middle;
}</style></svg>